<svg width="512" height="512" viewBox="0 0 512 512" fill="none" xmlns="http://www.w3.org/2000/svg">
<path d="M256 0C156.748 0 76 80.748 76 180C76 213.534 85.289 246.26 102.869 274.652L245.754 504.909C248.491 509.32 253.313 512 258.499 512C258.539 512 258.578 512 258.618 512C263.849 511.959 268.681 509.196 271.368 504.708L410.611 272.22C427.221 244.428 436 212.539 436 180C436 80.748 355.252 0 256 0ZM384.866 256.818L258.272 468.186L128.367 258.846C113.734 235.214 105.8 207.95 105.8 180C105.8 97.29 173.29 29.8 256 29.8C338.71 29.8 406.1 97.29 406.1 180C406.1 207.121 398.689 233.688 384.866 256.818Z" fill="#E99E2D"/>
<path d="M256 90C206.374 90 166 130.374 166 180C166 229.309 205.717 270 256 270C306.903 270 346 228.767 346 180C346 130.374 305.626 90 256 90ZM256 240.2C222.743 240.2 195.8 213.167 195.8 180C195.8 146.916 222.916 119.8 256 119.8C289.084 119.8 316.1 146.916 316.1 180C316.1 212.683 289.784 240.2 256 240.2Z" fill="#E99E2D"/>
</svg>
