<svg width="512" height="512" viewBox="0 0 512 512" fill="none" xmlns="http://www.w3.org/2000/svg">
<g clip-path="url(#clip0_256_584)">
<path d="M498.827 377.633L435.178 313.984C417.63 296.437 389.076 296.437 371.529 313.984L342.598 342.915C329.304 356.209 307.672 356.205 294.383 342.92L168.983 217.413C155.658 204.088 155.656 182.521 168.983 169.194C173.643 164.534 187.024 151.153 197.914 140.263C215.385 122.793 215.629 94.328 197.897 76.598L134.265 13.166C116.717 -4.38099 88.164 -4.38099 70.663 13.12C57.567 26.102 53.343 30.29 47.471 36.111C-15.809 99.39 -15.809 202.353 47.468 265.63L246.16 464.426C309.588 527.855 412.248 527.86 475.681 464.426L498.827 441.281C516.375 423.733 516.375 395.181 498.827 377.633ZM91.833 34.382C97.682 28.533 107.198 28.532 113.066 34.398L176.698 97.83C182.561 103.693 182.561 113.182 176.698 119.046L166.089 129.654L81.279 44.844L91.833 34.382ZM267.38 443.213L68.687 244.415C19.729 195.457 17.038 118.582 60.411 66.409L144.975 150.973C122.755 176.162 123.681 214.545 147.762 238.626L273.158 364.127C273.159 364.128 273.161 364.13 273.162 364.131C297.217 388.187 335.598 389.173 360.818 366.923L445.384 451.489C393.377 494.787 316.675 492.508 267.38 443.213ZM477.612 420.065L467.003 430.674L382.138 345.808L392.745 335.2C398.595 329.351 408.112 329.35 413.962 335.2L477.611 398.849C483.461 404.699 483.461 414.217 477.612 420.065Z" fill="#E99E2D"/>
</g>
<defs>
<clipPath id="clip0_256_584">
<rect width="511.999" height="511.999" fill="white"/>
</clipPath>
</defs>
</svg>
