<svg width="512" height="512" viewBox="0 0 512 512" fill="none" xmlns="http://www.w3.org/2000/svg">
<path d="M256 60C198.103 60 151 107.103 151 165C151 200.943 169.126 234.015 199.487 253.467C230.49 273.33 268.547 275.441 303.913 259.17C311.438 255.708 314.733 246.8 311.27 239.274C307.808 231.749 298.901 228.454 291.374 231.916C265.514 243.814 237.92 242.461 215.671 228.207C193.961 214.298 181 190.669 181 165C181 123.645 214.645 90 256 90C297.355 90 331 123.645 331 165C331 173.271 324.271 180 316 180C308.442 180 301.382 174.268 301.002 165.228C301.001 165.152 301 165.076 301 165C301 140.187 280.813 120 256 120C231.187 120 211 140.187 211 165C211 189.813 231.187 210 256 210C267.516 210 278.031 205.647 285.999 198.506C293.966 205.648 304.483 210 316 210C340.813 210 361 189.813 361 165C361 107.103 313.897 60 256 60ZM270.789 167.406C269.631 174.535 263.45 180 256 180C247.729 180 241 173.271 241 165C241 156.729 247.729 150 256 150C263.691 150 270.04 155.82 270.895 163.285C270.671 164.648 270.634 166.035 270.789 167.406Z" fill="#E99E2D"/>
<path d="M480.999 196.976C480.995 193.097 479.433 189.22 476.606 186.393L421 130.787V15C421 6.716 414.284 0 406 0H106C97.716 0 91 6.716 91 15V130.787L35.394 186.393C35.342 186.445 35.298 186.503 35.247 186.556C32.436 189.452 31.007 193.265 31.001 196.976C31.001 196.986 31 196.995 31 197.005V467C31 491.845 51.216 512 76 512H436C460.839 512 481 491.793 481 467V197.005C481 196.995 480.999 196.986 480.999 196.976ZM421 173.213L444.787 197L421 220.787V173.213ZM121 137.005C121 137.002 121 136.998 121 136.995V30H391V136.995C391 136.998 391 137.002 391 137.005V250.787L309.787 332H202.213L121 250.787V137.005ZM91 173.213V220.787L67.213 197L91 173.213ZM61 460.787V233.213L174.787 347L61 460.787ZM82.214 482L202.213 362H309.787L429.786 482H82.214ZM451 460.787L337.213 347L451 233.213V460.787Z" fill="#E99E2D"/>
</svg>
